<svg width="16" height="16" viewBox="0 0 16 16" fill="none" xmlns="http://www.w3.org/2000/svg">
<path fill-rule="evenodd" clip-rule="evenodd" d="M2.85686 3.55845C2.4511 3.55845 2.12217 3.88988 2.12217 4.29871V11.7013C2.12217 12.1101 2.4511 12.4416 2.85686 12.4416H13.1426C13.5483 12.4416 13.8773 12.1101 13.8773 11.7013V4.29871C13.8773 3.88988 13.5483 3.55845 13.1426 3.55845H2.85686ZM1.14258 4.29871C1.14258 3.34477 1.91009 2.57144 2.85686 2.57144H13.1426C14.0894 2.57144 14.8569 3.34477 14.8569 4.29871V11.7013C14.8569 12.6553 14.0894 13.4286 13.1426 13.4286H2.85686C1.91009 13.4286 1.14258 12.6553 1.14258 11.7013V4.29871Z" fill="white"/>
<path fill-rule="evenodd" clip-rule="evenodd" d="M3.20496 4.73601C3.37103 4.52087 3.67876 4.48211 3.89229 4.64945L7.99974 7.86834L12.1072 4.64945C12.3207 4.48211 12.6285 4.52087 12.7945 4.73601C12.9606 4.95116 12.9221 5.26121 12.7086 5.42855L8.30045 8.88309C8.12358 9.0217 7.87591 9.0217 7.69904 8.88309L3.29087 5.42855C3.07735 5.26121 3.03888 4.95116 3.20496 4.73601Z" fill="white"/>
</svg>
