<svg width="57" height="56" viewBox="0 0 57 56" fill="none" xmlns="http://www.w3.org/2000/svg">
<path d="M28.3476 8.32272C34.7638 8.32272 35.5236 8.35085 38.047 8.46337C40.3921 8.56652 41.6585 8.96034 42.5027 9.28853C43.619 9.71987 44.4257 10.245 45.2606 11.0795C46.1048 11.9234 46.6208 12.7205 47.0523 13.8363C47.3806 14.6802 47.7746 15.9555 47.8778 18.2903C47.9903 20.822 48.0185 21.5816 48.0185 27.9859C48.0185 34.3997 47.9903 35.1592 47.8778 37.6816C47.7746 40.0258 47.3806 41.2917 47.0523 42.1356C46.6208 43.2514 46.0955 44.0578 45.2606 44.8924C44.4164 45.7363 43.619 46.252 42.5027 46.6833C41.6585 47.0115 40.3827 47.4054 38.047 47.5085C35.5143 47.621 34.7544 47.6492 28.3476 47.6492C21.9313 47.6492 21.1715 47.621 18.6481 47.5085C16.303 47.4054 15.0366 47.0115 14.1924 46.6833C13.0761 46.252 12.2694 45.7269 11.4345 44.8924C10.5903 44.0485 10.0744 43.2514 9.64286 42.1356C9.31454 41.2917 8.92056 40.0164 8.81737 37.6816C8.70481 35.1498 8.67667 34.3903 8.67667 27.9859C8.67667 21.5722 8.70481 20.8127 8.81737 18.2903C8.92056 15.9461 9.31454 14.6802 9.64286 13.8363C10.0744 12.7205 10.5997 11.914 11.4345 11.0795C12.2788 10.2356 13.0761 9.71987 14.1924 9.28853C15.0366 8.96034 16.3124 8.56652 18.6481 8.46337C21.1715 8.35085 21.9313 8.32272 28.3476 8.32272ZM28.3476 4C21.8281 4 21.012 4.02813 18.4511 4.14065C15.8996 4.25317 14.1455 4.66575 12.6259 5.2565C11.0406 5.87537 9.69914 6.69115 8.36711 8.03204C7.0257 9.36355 6.2096 10.7044 5.59048 12.2797C4.99951 13.8082 4.58677 15.5523 4.4742 18.1028C4.36164 20.672 4.3335 21.4878 4.3335 28.0047C4.3335 34.5216 4.36164 35.3374 4.4742 37.8972C4.58677 40.4477 4.99951 42.2012 5.59048 43.7203C6.2096 45.3049 7.0257 46.6458 8.36711 47.9773C9.69914 49.3088 11.0406 50.134 12.6165 50.7435C14.1455 51.3342 15.8903 51.7468 18.4418 51.8593C21.0026 51.9719 21.8187 52 28.3382 52C34.8576 52 35.6737 51.9719 38.2346 51.8593C40.7861 51.7468 42.5403 51.3342 44.0599 50.7435C45.6358 50.134 46.9772 49.3088 48.3093 47.9773C49.6413 46.6458 50.4668 45.3049 51.0765 43.7296C51.6675 42.2012 52.0802 40.4571 52.1928 37.9066C52.3054 35.3468 52.3335 34.531 52.3335 28.0141C52.3335 21.4972 52.3054 20.6814 52.1928 18.1215C52.0802 15.571 51.6675 13.8175 51.0765 12.2985C50.4855 10.7044 49.6694 9.36355 48.328 8.03204C46.996 6.70053 45.6546 5.87537 44.0787 5.26587C42.5496 4.67513 40.8049 4.26255 38.2534 4.15003C35.6831 4.02813 34.867 4 28.3476 4Z" fill="white"/>
<path d="M28.3476 15.6743C21.5373 15.6743 16.0122 21.1973 16.0122 28.0049C16.0122 34.8124 21.5373 40.3354 28.3476 40.3354C35.1578 40.3354 40.6829 34.8124 40.6829 28.0049C40.6829 21.1973 35.1578 15.6743 28.3476 15.6743ZM28.3476 36.0033C23.9293 36.0033 20.346 32.4213 20.346 28.0049C20.346 23.5884 23.9293 20.0064 28.3476 20.0064C32.7658 20.0064 36.3491 23.5884 36.3491 28.0049C36.3491 32.4213 32.7658 36.0033 28.3476 36.0033Z" fill="white"/>
<path d="M44.0511 15.1863C44.0511 16.7804 42.7566 18.065 41.1713 18.065C39.5766 18.065 38.2915 16.771 38.2915 15.1863C38.2915 13.5922 39.586 12.3076 41.1713 12.3076C42.7566 12.3076 44.0511 13.6016 44.0511 15.1863Z" fill="white"/>
</svg>
