<svg width="20" height="20" viewBox="0 0 20 20" fill="none" xmlns="http://www.w3.org/2000/svg">
<path d="M17.3026 1.42853H2.69434C1.99456 1.42853 1.42871 1.98098 1.42871 2.66402V17.3325C1.42871 18.0156 1.99456 18.5714 2.69434 18.5714H17.3026C18.0024 18.5714 18.5716 18.0156 18.5716 17.3359V2.66402C18.5716 1.98098 18.0024 1.42853 17.3026 1.42853ZM6.51465 16.0368H3.97001V7.85375H6.51465V16.0368ZM5.24233 6.7388C4.42536 6.7388 3.76576 6.0792 3.76576 5.26558C3.76576 4.45197 4.42536 3.79237 5.24233 3.79237C6.05594 3.79237 6.71554 4.45197 6.71554 5.26558C6.71554 6.07585 6.05594 6.7388 5.24233 6.7388ZM16.037 16.0368H13.4957V12.0591C13.4957 11.1116 13.4789 9.88946 12.1731 9.88946C10.8506 9.88946 10.6497 10.9241 10.6497 11.9921V16.0368H8.11175V7.85375H10.5492V8.97205H10.5827C10.9209 8.3292 11.7513 7.64951 12.9867 7.64951C15.5615 7.64951 16.037 9.34371 16.037 11.5468V16.0368Z" fill="white"/>
</svg>
