<svg width="20" height="20" viewBox="0 0 20 20" fill="none" xmlns="http://www.w3.org/2000/svg">
<path d="M11.8736 10.7765C13.1472 10.6548 14.9617 10.3362 17.4998 10C14.9617 9.66471 13.1472 9.3452 11.8736 9.22353C12.6886 8.23715 13.7456 6.72879 15.3034 4.69659C13.2715 6.25325 11.7622 7.31022 10.7763 8.1257C10.6548 6.85232 10.336 5.03746 9.99976 2.5C9.66354 5.03746 9.34468 6.85139 9.22317 8.1257C8.23645 7.31115 6.72804 6.25418 4.69613 4.69659C6.25295 6.72786 7.31094 8.23715 8.1259 9.22353C6.8523 9.3452 5.03782 9.66378 2.49976 10C5.03782 10.3353 6.8523 10.6548 8.1259 10.7765C7.31094 11.7628 6.25387 13.2712 4.69613 15.3034C6.72804 13.7467 8.23736 12.6898 9.22317 11.8743C9.34468 13.1477 9.66354 14.9625 9.99976 17.5C10.336 14.9625 10.6548 13.1486 10.7763 11.8743C11.7631 12.6889 13.2715 13.7458 15.3034 15.3034C13.7466 13.2721 12.6886 11.7628 11.8736 10.7765Z" fill="#F492FC"/>
</svg>
