<svg width="32" height="32" viewBox="0 0 32 32" fill="none" xmlns="http://www.w3.org/2000/svg">
<path d="M18.9982 17.2424C21.0359 17.0477 23.9391 16.538 28 16C23.9391 15.4635 21.0359 14.9523 18.9982 14.7576C20.3021 13.1794 21.9934 10.7661 24.4858 7.51455C21.2347 10.0052 18.8198 11.6963 17.2425 13.0011C17.0481 10.9637 16.5379 8.05994 16 4C15.4621 8.05994 14.9519 10.9622 14.7575 13.0011C13.1787 11.6978 10.7653 10.0067 7.51419 7.51455C10.0051 10.7646 11.6979 13.1794 13.0018 14.7576C10.9641 14.9523 8.06091 15.462 4 16C8.06091 16.5365 10.9641 17.0477 13.0018 17.2424C11.6979 18.8206 10.0066 21.2339 7.51419 24.4854C10.7653 21.9948 13.1802 20.3037 14.7575 18.9989C14.9519 21.0363 15.4621 23.9401 16 28C16.5379 23.9401 17.0481 21.0378 17.2425 18.9989C18.8213 20.3022 21.2347 21.9933 24.4858 24.4854C21.9949 21.2354 20.3021 18.8206 18.9982 17.2424Z" fill="#F492FC"/>
</svg>
