<svg width="current" height="current" viewBox="0 0 56 56" fill="none" xmlns="http://www.w3.org/2000/svg">
<path fill-rule="evenodd" clip-rule="evenodd" d="M10 12.4545C8.57984 12.4545 7.42857 13.6145 7.42857 15.0455V40.9545C7.42857 42.3855 8.57984 43.5455 10 43.5455H46C47.4202 43.5455 48.5714 42.3855 48.5714 40.9545V15.0455C48.5714 13.6145 47.4202 12.4545 46 12.4545H10ZM4 15.0455C4 11.7066 6.68629 9 10 9H46C49.3137 9 52 11.7066 52 15.0455V40.9545C52 44.2934 49.3137 47 46 47H10C6.68629 47 4 44.2934 4 40.9545V15.0455Z" fill="white"/>
<path fill-rule="evenodd" clip-rule="evenodd" d="M11.2183 16.576C11.7996 15.823 12.8766 15.6873 13.624 16.273L28.0001 27.5391L42.3762 16.273C43.1235 15.6873 44.2006 15.823 44.7818 16.576C45.3631 17.329 45.2285 18.4142 44.4811 18.9999L29.0525 31.0908C28.4335 31.5759 27.5667 31.5759 26.9476 31.0908L11.519 18.9999C10.7717 18.4142 10.6371 17.329 11.2183 16.576Z" fill="white"/>
</svg>
