<svg width="20" height="20" viewBox="0 0 20 20" fill="none" xmlns="http://www.w3.org/2000/svg">
<path fill-rule="evenodd" clip-rule="evenodd" d="M3.57157 4.44805C3.06437 4.44805 2.6532 4.86233 2.6532 5.37337V14.6266C2.6532 15.1377 3.06437 15.5519 3.57157 15.5519H16.4287C16.9359 15.5519 17.3471 15.1377 17.3471 14.6266V5.37337C17.3471 4.86233 16.9359 4.44805 16.4287 4.44805H3.57157ZM1.42871 5.37337C1.42871 4.18094 2.3881 3.21428 3.57157 3.21428H16.4287C17.6122 3.21428 18.5716 4.18094 18.5716 5.37337V14.6266C18.5716 15.819 17.6122 16.7857 16.4287 16.7857H3.57157C2.3881 16.7857 1.42871 15.819 1.42871 14.6266V5.37337Z" fill="white"/>
<path fill-rule="evenodd" clip-rule="evenodd" d="M4.00669 5.91999C4.21428 5.65107 4.59894 5.60262 4.86585 5.81178L10.0002 9.8354L15.1345 5.81178C15.4014 5.60262 15.7861 5.65107 15.9936 5.91999C16.2012 6.18892 16.1532 6.57649 15.8863 6.78566L10.376 11.1038C10.155 11.2771 9.84537 11.2771 9.62429 11.1038L4.11408 6.78566C3.84717 6.57649 3.79909 6.18892 4.00669 5.91999Z" fill="white"/>
</svg>
