<svg width="current" height="current" viewBox="0 0 56 56" fill="none" xmlns="http://www.w3.org/2000/svg">
<path d="M28.0141 8.32272C34.4303 8.32272 35.1902 8.35085 37.7135 8.46337C40.0586 8.56652 41.325 8.96034 42.1692 9.28853C43.2855 9.71987 44.0922 10.245 44.9271 11.0795C45.7714 11.9234 46.2873 12.7205 46.7188 13.8363C47.0471 14.6802 47.4411 15.9555 47.5443 18.2903C47.6568 20.822 47.685 21.5816 47.685 27.9859C47.685 34.3997 47.6568 35.1592 47.5443 37.6816C47.4411 40.0258 47.0471 41.2917 46.7188 42.1356C46.2873 43.2514 45.762 44.0578 44.9271 44.8924C44.0829 45.7363 43.2855 46.252 42.1692 46.6833C41.325 47.0115 40.0493 47.4054 37.7135 47.5085C35.1808 47.621 34.421 47.6492 28.0141 47.6492C21.5978 47.6492 20.838 47.621 18.3146 47.5085C15.9695 47.4054 14.7031 47.0115 13.8589 46.6833C12.7426 46.252 11.9359 45.7269 11.101 44.8924C10.2568 44.0485 9.74086 43.2514 9.30936 42.1356C8.98104 41.2917 8.58706 40.0164 8.48388 37.6816C8.37131 35.1498 8.34317 34.3903 8.34317 27.9859C8.34317 21.5722 8.37131 20.8127 8.48388 18.2903C8.58706 15.9461 8.98104 14.6802 9.30936 13.8363C9.74086 12.7205 10.2662 11.914 11.101 11.0795C11.9453 10.2356 12.7426 9.71987 13.8589 9.28853C14.7031 8.96034 15.9789 8.56652 18.3146 8.46337C20.838 8.35085 21.5978 8.32272 28.0141 8.32272ZM28.0141 4C21.4946 4 20.6785 4.02813 18.1176 4.14065C15.5662 4.25317 13.812 4.66575 12.2924 5.2565C10.7071 5.87537 9.36564 6.69115 8.03361 8.03204C6.6922 9.36355 5.8761 10.7044 5.25699 12.2797C4.66602 13.8082 4.25327 15.5523 4.14071 18.1028C4.02814 20.672 4 21.4878 4 28.0047C4 34.5216 4.02814 35.3374 4.14071 37.8972C4.25327 40.4477 4.66602 42.2012 5.25699 43.7203C5.8761 45.3049 6.6922 46.6458 8.03361 47.9773C9.36564 49.3088 10.7071 50.134 12.283 50.7435C13.812 51.3342 15.5568 51.7468 18.1083 51.8593C20.6691 51.9719 21.4852 52 28.0047 52C34.5241 52 35.3402 51.9719 37.9011 51.8593C40.4526 51.7468 42.2068 51.3342 43.7264 50.7435C45.3023 50.134 46.6437 49.3088 47.9758 47.9773C49.3078 46.6458 50.1333 45.3049 50.743 43.7296C51.334 42.2012 51.7467 40.4571 51.8593 37.9066C51.9719 35.3468 52 34.531 52 28.0141C52 21.4972 51.9719 20.6814 51.8593 18.1215C51.7467 15.571 51.334 13.8175 50.743 12.2985C50.152 10.7044 49.3359 9.36355 47.9945 8.03204C46.6625 6.70053 45.3211 5.87537 43.7452 5.26587C42.2161 4.67513 40.4714 4.26255 37.9199 4.15003C35.3496 4.02813 34.5335 4 28.0141 4Z" fill="white"/>
<path d="M28.0141 15.6741C21.2038 15.6741 15.6787 21.197 15.6787 28.0046C15.6787 34.8122 21.2038 40.3351 28.0141 40.3351C34.8243 40.3351 40.3494 34.8122 40.3494 28.0046C40.3494 21.197 34.8243 15.6741 28.0141 15.6741ZM28.0141 36.003C23.5958 36.003 20.0125 32.4211 20.0125 28.0046C20.0125 23.5881 23.5958 20.0062 28.0141 20.0062C32.4323 20.0062 36.0156 23.5881 36.0156 28.0046C36.0156 32.4211 32.4323 36.003 28.0141 36.003Z" fill="white"/>
<path d="M43.7176 15.1866C43.7176 16.7806 42.4231 18.0652 40.8378 18.0652C39.2431 18.0652 37.958 16.7712 37.958 15.1866C37.958 13.5925 39.2525 12.3079 40.8378 12.3079C42.4231 12.3079 43.7176 13.6019 43.7176 15.1866Z" fill="white"/>
</svg>
