<svg width="16" height="16" viewBox="0 0 16 16" fill="none" xmlns="http://www.w3.org/2000/svg">
<path d="M8.00472 2.37788C9.83794 2.37788 10.055 2.38592 10.776 2.41807C11.446 2.44754 11.8078 2.56006 12.0491 2.65383C12.368 2.77707 12.5985 2.9271 12.837 3.16554C13.0782 3.40666 13.2256 3.63438 13.3489 3.95319C13.4427 4.19431 13.5553 4.55867 13.5848 5.22576C13.6169 5.94912 13.625 6.16613 13.625 7.99595C13.625 9.82845 13.6169 10.0455 13.5848 10.7661C13.5553 11.4359 13.4427 11.7976 13.3489 12.0387C13.2256 12.3575 13.0755 12.5879 12.837 12.8264C12.5958 13.0675 12.368 13.2148 12.0491 13.3381C11.8078 13.4318 11.4433 13.5444 10.776 13.5738C10.0523 13.606 9.83526 13.614 8.00472 13.614C6.1715 13.614 5.95441 13.606 5.23345 13.5738C4.56342 13.5444 4.2016 13.4318 3.96038 13.3381C3.64145 13.2148 3.41095 13.0648 3.17242 12.8264C2.93121 12.5852 2.7838 12.3575 2.66051 12.0387C2.56671 11.7976 2.45414 11.4332 2.42466 10.7661C2.3925 10.0428 2.38446 9.82577 2.38446 7.99595C2.38446 6.16345 2.3925 5.94644 2.42466 5.22576C2.45414 4.55599 2.56671 4.19431 2.66051 3.95319C2.7838 3.63438 2.93389 3.40398 3.17242 3.16554C3.41363 2.92442 3.64145 2.77707 3.96038 2.65383C4.2016 2.56006 4.5661 2.44754 5.23345 2.41807C5.95441 2.38592 6.1715 2.37788 8.00472 2.37788ZM8.00472 1.14282C6.14202 1.14282 5.90885 1.15086 5.17717 1.18301C4.44817 1.21516 3.94698 1.33304 3.5128 1.50182C3.05986 1.67864 2.6766 1.91172 2.29602 2.29483C1.91276 2.67526 1.67958 3.05838 1.50269 3.50846C1.33384 3.94516 1.21592 4.44347 1.18376 5.17218C1.1516 5.90625 1.14355 6.13933 1.14355 8.00131C1.14355 9.86328 1.1516 10.0964 1.18376 10.8278C1.21592 11.5565 1.33384 12.0575 1.50269 12.4915C1.67958 12.9442 1.91276 13.3273 2.29602 13.7078C2.6766 14.0882 3.05986 14.324 3.51012 14.4981C3.94698 14.6669 4.44549 14.7848 5.17449 14.8169C5.90617 14.8491 6.13934 14.8571 8.00204 14.8571C9.86474 14.8571 10.0979 14.8491 10.8296 14.8169C11.5586 14.7848 12.0598 14.6669 12.494 14.4981C12.9442 14.324 13.3275 14.0882 13.7081 13.7078C14.0886 13.3273 14.3245 12.9442 14.4987 12.4941C14.6676 12.0575 14.7855 11.5591 14.8176 10.8304C14.8498 10.099 14.8578 9.86596 14.8578 8.00398C14.8578 6.14201 14.8498 5.90893 14.8176 5.17754C14.7855 4.44883 14.6676 3.94783 14.4987 3.51382C14.3299 3.05838 14.0967 2.67526 13.7134 2.29483C13.3328 1.9144 12.9496 1.67864 12.4993 1.5045C12.0625 1.33572 11.5639 1.21784 10.8349 1.18569C10.1006 1.15086 9.86742 1.14282 8.00472 1.14282Z" fill="white"/>
<path d="M8.00485 4.47833C6.05907 4.47833 4.48047 6.05632 4.48047 8.00134C4.48047 9.94636 6.05907 11.5244 8.00485 11.5244C9.95064 11.5244 11.5292 9.94636 11.5292 8.00134C11.5292 6.05632 9.95064 4.47833 8.00485 4.47833ZM8.00485 10.2866C6.74251 10.2866 5.71869 9.2632 5.71869 8.00134C5.71869 6.73949 6.74251 5.71607 8.00485 5.71607C9.2672 5.71607 10.291 6.73949 10.291 8.00134C10.291 9.2632 9.2672 10.2866 8.00485 10.2866Z" fill="white"/>
<path d="M12.4913 4.33902C12.4913 4.79447 12.1215 5.16151 11.6685 5.16151C11.2129 5.16151 10.8457 4.79179 10.8457 4.33902C10.8457 3.88358 11.2156 3.51654 11.6685 3.51654C12.1215 3.51654 12.4913 3.88626 12.4913 4.33902Z" fill="white"/>
</svg>
