<svg width="20" height="20" viewBox="0 0 20 20" fill="none" xmlns="http://www.w3.org/2000/svg">
<path d="M10.0052 2.9723C12.2967 2.9723 12.568 2.98234 13.4692 3.02253C14.3068 3.05937 14.7591 3.20002 15.0606 3.31723C15.4593 3.47128 15.7474 3.65881 16.0455 3.95686C16.347 4.25826 16.5313 4.54291 16.6854 4.94143C16.8027 5.24283 16.9434 5.69827 16.9802 6.53214C17.0204 7.43634 17.0305 7.7076 17.0305 9.99487C17.0305 12.2855 17.0204 12.5568 16.9802 13.4576C16.9434 14.2948 16.8027 14.7469 16.6854 15.0483C16.5313 15.4468 16.3437 15.7348 16.0455 16.0329C15.744 16.3343 15.4593 16.5185 15.0606 16.6725C14.7591 16.7897 14.3034 16.9304 13.4692 16.9672C12.5647 17.0074 12.2933 17.0174 10.0052 17.0174C7.71364 17.0174 7.44228 17.0074 6.54108 16.9672C5.70354 16.9304 5.25126 16.7897 4.94975 16.6725C4.55108 16.5185 4.26296 16.3309 3.96479 16.0329C3.66328 15.7315 3.47902 15.4468 3.32491 15.0483C3.20765 14.7469 3.06695 14.2915 3.0301 13.4576C2.98989 12.5534 2.97984 12.2821 2.97984 9.99487C2.97984 7.70425 2.98989 7.43299 3.0301 6.53214C3.06695 5.69492 3.20765 5.24283 3.32491 4.94143C3.47902 4.54291 3.66663 4.25491 3.96479 3.95686C4.26631 3.65546 4.55108 3.47128 4.94975 3.31723C5.25126 3.20002 5.70689 3.05937 6.54108 3.02253C7.44228 2.98234 7.71364 2.9723 10.0052 2.9723ZM10.0052 1.42847C7.67679 1.42847 7.38533 1.43851 6.47073 1.4787C5.55948 1.51889 4.933 1.66624 4.39027 1.87722C3.82409 2.09824 3.34501 2.38959 2.86929 2.86848C2.39021 3.34402 2.09875 3.82291 1.87763 4.38552C1.66657 4.93138 1.51917 5.55427 1.47896 6.46516C1.43876 7.38275 1.42871 7.67411 1.42871 10.0016C1.42871 12.329 1.43876 12.6204 1.47896 13.5346C1.51917 14.4455 1.66657 15.0718 1.87763 15.6143C2.09875 16.1802 2.39021 16.6591 2.86929 17.1347C3.34501 17.6102 3.82409 17.9049 4.38692 18.1226C4.933 18.3336 5.55613 18.4809 6.46738 18.5211C7.38198 18.5613 7.67344 18.5713 10.0018 18.5713C12.3302 18.5713 12.6217 18.5613 13.5363 18.5211C14.4475 18.4809 15.074 18.3336 15.6167 18.1226C16.1795 17.9049 16.6586 17.6102 17.1343 17.1347C17.6101 16.6591 17.9049 16.1802 18.1226 15.6176C18.3337 15.0718 18.4811 14.4489 18.5213 13.538C18.5615 12.6237 18.5716 12.3324 18.5716 10.0049C18.5716 7.67746 18.5615 7.3861 18.5213 6.47186C18.4811 5.56097 18.3337 4.93473 18.1226 4.39222C17.9116 3.82291 17.6201 3.34402 17.141 2.86848C16.6653 2.39294 16.1862 2.09824 15.6234 1.88056C15.0773 1.66959 14.4542 1.52224 13.543 1.48205C12.625 1.43851 12.3335 1.42847 10.0052 1.42847Z" fill="white"/>
<path d="M10.0051 5.5979C7.57286 5.5979 5.59961 7.57038 5.59961 10.0017C5.59961 12.4329 7.57286 14.4054 10.0051 14.4054C12.4373 14.4054 14.4106 12.4329 14.4106 10.0017C14.4106 7.57038 12.4373 5.5979 10.0051 5.5979ZM10.0051 12.8582C8.42716 12.8582 7.14739 11.579 7.14739 10.0017C7.14739 8.42435 8.42716 7.14508 10.0051 7.14508C11.583 7.14508 12.8628 8.42435 12.8628 10.0017C12.8628 11.579 11.583 12.8582 10.0051 12.8582Z" fill="white"/>
<path d="M15.6136 5.42361C15.6136 5.99292 15.1513 6.45172 14.5851 6.45172C14.0156 6.45172 13.5566 5.98957 13.5566 5.42361C13.5566 4.8543 14.019 4.39551 14.5851 4.39551C15.1513 4.39551 15.6136 4.85765 15.6136 5.42361Z" fill="white"/>
</svg>
