<svg width="20" height="20" viewBox="0 0 20 20" fill="none" xmlns="http://www.w3.org/2000/svg">
<path d="M10.0052 2.97236C12.2967 2.97236 12.568 2.9824 13.4692 3.02259C14.3068 3.05943 14.7591 3.20008 15.0606 3.31729C15.4593 3.47134 15.7474 3.65887 16.0455 3.95692C16.347 4.25832 16.5313 4.54298 16.6854 4.94149C16.8027 5.24289 16.9434 5.69833 16.9802 6.5322C17.0204 7.4364 17.0305 7.70766 17.0305 9.99493C17.0305 12.2856 17.0204 12.5568 16.9802 13.4577C16.9434 14.2949 16.8027 14.747 16.6854 15.0484C16.5313 15.4469 16.3437 15.7349 16.0455 16.0329C15.744 16.3343 15.4593 16.5185 15.0606 16.6726C14.7591 16.7898 14.3034 16.9304 13.4692 16.9673C12.5647 17.0075 12.2933 17.0175 10.0052 17.0175C7.71364 17.0175 7.44228 17.0075 6.54108 16.9673C5.70354 16.9304 5.25126 16.7898 4.94975 16.6726C4.55108 16.5185 4.26296 16.331 3.96479 16.0329C3.66328 15.7315 3.47902 15.4469 3.32491 15.0484C3.20765 14.747 3.06695 14.2915 3.0301 13.4577C2.98989 12.5535 2.97984 12.2822 2.97984 9.99493C2.97984 7.70431 2.98989 7.43305 3.0301 6.5322C3.06695 5.69499 3.20765 5.24289 3.32491 4.94149C3.47902 4.54298 3.66663 4.25497 3.96479 3.95692C4.26631 3.65553 4.55108 3.47134 4.94975 3.31729C5.25126 3.20008 5.70689 3.05943 6.54108 3.02259C7.44228 2.9824 7.71364 2.97236 10.0052 2.97236ZM10.0052 1.42853C7.67679 1.42853 7.38533 1.43857 6.47073 1.47876C5.55948 1.51895 4.933 1.6663 4.39027 1.87728C3.82409 2.0983 3.34501 2.38965 2.86929 2.86854C2.39021 3.34408 2.09875 3.82297 1.87763 4.38558C1.66657 4.93144 1.51917 5.55433 1.47896 6.46523C1.43876 7.38282 1.42871 7.67417 1.42871 10.0016C1.42871 12.3291 1.43876 12.6204 1.47896 13.5347C1.51917 14.4456 1.66657 15.0718 1.87763 15.6143C2.09875 16.1803 2.39021 16.6592 2.86929 17.1347C3.34501 17.6103 3.82409 17.905 4.38692 18.1226C4.933 18.3336 5.55613 18.481 6.46738 18.5212C7.38198 18.5613 7.67344 18.5714 10.0018 18.5714C12.3302 18.5714 12.6217 18.5613 13.5363 18.5212C14.4475 18.481 15.074 18.3336 15.6167 18.1226C16.1795 17.905 16.6586 17.6103 17.1343 17.1347C17.6101 16.6592 17.9049 16.1803 18.1226 15.6177C18.3337 15.0718 18.4811 14.4489 18.5213 13.538C18.5615 12.6238 18.5716 12.3324 18.5716 10.005C18.5716 7.67752 18.5615 7.38617 18.5213 6.47192C18.4811 5.56103 18.3337 4.93479 18.1226 4.39228C17.9116 3.82297 17.6201 3.34408 17.141 2.86854C16.6653 2.393 16.1862 2.0983 15.6234 1.88063C15.0773 1.66965 14.4542 1.5223 13.543 1.48211C12.625 1.43857 12.3335 1.42853 10.0052 1.42853Z" fill="white"/>
<path d="M10.0051 5.59795C7.57286 5.59795 5.59961 7.57043 5.59961 10.0017C5.59961 12.433 7.57286 14.4055 10.0051 14.4055C12.4373 14.4055 14.4106 12.433 14.4106 10.0017C14.4106 7.57043 12.4373 5.59795 10.0051 5.59795ZM10.0051 12.8583C8.42716 12.8583 7.14739 11.579 7.14739 10.0017C7.14739 8.42439 8.42716 7.14512 10.0051 7.14512C11.583 7.14512 12.8628 8.42439 12.8628 10.0017C12.8628 11.579 11.583 12.8583 10.0051 12.8583Z" fill="white"/>
<path d="M15.6136 5.42378C15.6136 5.99309 15.1513 6.45188 14.5851 6.45188C14.0156 6.45188 13.5566 5.98974 13.5566 5.42378C13.5566 4.85447 14.019 4.39568 14.5851 4.39568C15.1513 4.39568 15.6136 4.85782 15.6136 5.42378Z" fill="white"/>
</svg>
