<svg width="32" height="32" viewBox="0 0 32 32" fill="none" xmlns="http://www.w3.org/2000/svg">
<circle cx="16" cy="16" r="16" fill="#1B202C"/>
<rect x="8" y="7.41895" width="16.5" height="16.5" fill="white"/>
<path d="M5.93667 5.51503C6.2697 5.49499 6.60363 5.49499 6.93667 5.51503H25.7817C25.8783 5.50224 25.9765 5.51129 26.0691 5.54158C26.1617 5.57187 26.2463 5.62261 26.3167 5.69002C26.5667 5.94502 26.4767 6.32503 26.4917 6.64503C26.4917 13.0584 26.4917 19.475 26.4917 25.895C26.4897 25.9831 26.4691 26.0697 26.4313 26.1492C26.3934 26.2288 26.3392 26.2994 26.2722 26.3565C26.2051 26.4136 26.1268 26.456 26.0423 26.4807C25.9577 26.5054 25.8689 26.512 25.7817 26.5H6.11167C6.03105 26.5035 5.95059 26.4903 5.87533 26.4612C5.80007 26.4321 5.73164 26.3877 5.67435 26.3309C5.61706 26.2741 5.57215 26.206 5.54243 26.131C5.51271 26.056 5.49883 25.9757 5.50167 25.895V6.12501C5.49134 5.98851 5.52922 5.85268 5.6087 5.74122C5.68819 5.62976 5.80424 5.54974 5.93667 5.51503ZM10.2417 10.735C10.2417 14.235 10.2417 17.735 10.2417 21.235H14.1817C14.1817 19.5 14.1567 17.735 14.1817 16.025C14.6117 16.625 15.0067 17.255 15.4467 17.85C16.1817 18.99 17.0117 20.065 17.7167 21.225C19.0367 21.26 20.3567 21.225 21.6817 21.225C21.6817 21.06 21.7067 20.895 21.7067 20.725C21.7067 17.385 21.7067 14.04 21.7067 10.725C20.3967 10.725 19.0917 10.725 17.7867 10.725C17.7867 12.47 17.7867 14.225 17.7867 15.96C16.5717 14.235 15.4267 12.46 14.1817 10.75C12.8717 10.695 11.5417 10.735 10.2417 10.735Z" fill="#1B202C"/>
<path d="M8.02325 6.5H23.9813C24.3841 6.5 24.7704 6.66001 25.0552 6.94483C25.34 7.22965 25.5 7.61594 25.5 8.01873V23.9768C25.5 24.1768 25.4606 24.3749 25.384 24.5597C25.3075 24.7445 25.1953 24.9124 25.0539 25.0538C24.9124 25.1953 24.7445 25.3075 24.5597 25.384C24.3749 25.4606 24.1768 25.5 23.9768 25.5H8.02325C7.82321 25.5 7.62513 25.4606 7.44032 25.384C7.25552 25.3075 7.08759 25.1953 6.94615 25.0538C6.8047 24.9124 6.6925 24.7445 6.61595 24.5597C6.5394 24.3749 6.5 24.1768 6.5 23.9768V8.01873C6.50119 7.61553 6.6622 7.22925 6.94774 6.94456C7.23327 6.65987 7.62004 6.5 8.02325 6.5Z" fill="#1B202C"/>
<path d="M16.0461 7.72192C11.0682 7.72192 7.05371 10.9335 7.05371 14.8323C7.05371 17.363 8.72373 19.579 11.2288 20.8444L10.3809 24.011C10.3649 24.0585 10.3625 24.1094 10.3738 24.1582C10.3851 24.207 10.4098 24.2516 10.4451 24.2872C10.4966 24.3325 10.5628 24.3576 10.6314 24.3578C10.6883 24.3532 10.7423 24.3308 10.7856 24.2936L14.4339 21.8335C14.9724 21.9079 15.5153 21.9465 16.059 21.9491C21.0305 21.9491 25.0514 18.7376 25.0514 14.8323C25.0514 10.927 21.0176 7.72192 16.0461 7.72192Z" fill="white"/>
<path d="M10.2007 13.7084H9.218C9.0962 13.7119 8.9759 13.6807 8.87115 13.6184C8.82465 13.5893 8.78467 13.5509 8.75372 13.5055C8.72277 13.4602 8.70152 13.409 8.69131 13.3551C8.68818 13.3209 8.68818 13.2865 8.69131 13.2524C8.68825 13.1884 8.70067 13.1246 8.72751 13.0665C8.75434 13.0083 8.7948 12.9575 8.84546 12.9183C8.95744 12.8372 9.0926 12.7944 9.23085 12.7963H12.1919C12.3147 12.792 12.4358 12.8256 12.5388 12.8926C12.5864 12.9205 12.6272 12.9586 12.6583 13.0041C12.6894 13.0497 12.71 13.1015 12.7186 13.156C12.7217 13.188 12.7217 13.2203 12.7186 13.2524C12.7216 13.3173 12.7093 13.3819 12.6825 13.4411C12.6557 13.5003 12.6152 13.5522 12.5645 13.5927C12.4552 13.6737 12.3214 13.7146 12.1855 13.7084H11.2349V17.087C11.2387 17.1589 11.2276 17.2309 11.2022 17.2983C11.1767 17.3658 11.1376 17.4273 11.0871 17.4788C11.0388 17.528 10.9807 17.5666 10.9165 17.5921C10.8523 17.6175 10.7836 17.6292 10.7146 17.6265C10.594 17.6299 10.4759 17.5914 10.3806 17.5173C10.2899 17.445 10.2283 17.3423 10.2072 17.2283C10.2008 17.1814 10.2008 17.1339 10.2072 17.087L10.2007 13.7084Z" fill="#1B202C"/>
<path d="M13.0022 13.0468C13.0304 12.9411 13.0968 12.8495 13.1884 12.7898C13.2861 12.7345 13.3974 12.7078 13.5096 12.7128H13.7537C13.8727 12.7085 13.9906 12.7374 14.0941 12.7963C14.2038 12.87 14.2818 12.9824 14.3125 13.111L15.5971 16.7401C15.6304 16.8348 15.6583 16.9313 15.6806 17.0292C15.6828 17.0698 15.6828 17.1105 15.6806 17.1512C15.6828 17.2138 15.6713 17.2761 15.6469 17.3338C15.6224 17.3915 15.5857 17.4431 15.5393 17.4852C15.4943 17.5313 15.4403 17.5677 15.3806 17.592C15.3209 17.6163 15.2569 17.628 15.1924 17.6265C15.0934 17.6363 14.9939 17.6126 14.91 17.559C14.8261 17.5054 14.7627 17.4251 14.73 17.331L14.4602 16.541H12.7709L12.5012 17.331C12.4692 17.4269 12.4051 17.5088 12.3196 17.5626C12.2341 17.6165 12.1325 17.6391 12.0323 17.6265C11.9236 17.6293 11.8173 17.5953 11.7304 17.5301C11.6457 17.4628 11.5886 17.3669 11.5698 17.2604C11.5664 17.2241 11.5664 17.1875 11.5698 17.1512C11.5588 17.0874 11.5588 17.0223 11.5698 16.9585C11.5698 16.8879 11.6148 16.8107 11.6405 16.7401L13.0022 13.0468ZM13.6445 13.8882L13.0343 15.8152H14.2482L13.6445 13.8882Z" fill="#1B202C"/>
<path d="M15.8277 13.2523C15.8212 13.1081 15.872 12.9673 15.969 12.8605C16.0183 12.8107 16.0776 12.7719 16.1428 12.7464C16.2081 12.721 16.278 12.7095 16.348 12.7127C16.4683 12.7113 16.5857 12.7497 16.682 12.8219C16.7712 12.8973 16.8304 13.0021 16.849 13.1174C16.8553 13.1621 16.8553 13.2076 16.849 13.2523V16.6309H18.6153C18.7378 16.6293 18.8581 16.6626 18.9622 16.7272C19.009 16.756 19.0491 16.7944 19.0801 16.8398C19.1111 16.8851 19.1322 16.9365 19.142 16.9905C19.142 16.9905 19.142 17.0548 19.142 17.0869C19.1451 17.1509 19.1327 17.2146 19.1058 17.2727C19.079 17.3309 19.0385 17.3817 18.9879 17.4209C18.8759 17.502 18.7408 17.5448 18.6025 17.5429H16.4315C16.2932 17.5518 16.1558 17.5158 16.0397 17.4402C15.9358 17.3625 15.8666 17.2472 15.847 17.119C15.8423 17.0485 15.8423 16.9776 15.847 16.907L15.8277 13.2523Z" fill="#1B202C"/>
<path d="M19.2581 13.2526C19.2543 13.1088 19.3048 12.969 19.3995 12.8608C19.4957 12.7733 19.6192 12.7216 19.7491 12.7146C19.879 12.7076 20.0073 12.7456 20.1124 12.8222C20.2036 12.8969 20.2651 13.0016 20.2858 13.1176C20.289 13.1625 20.289 13.2077 20.2858 13.2526V14.8262L21.9109 12.9506C21.9735 12.8866 22.04 12.8266 22.11 12.7708C22.176 12.7315 22.2516 12.7115 22.3284 12.713C22.4407 12.7124 22.5505 12.746 22.6431 12.8093C22.6868 12.8387 22.7241 12.8767 22.7528 12.9208C22.7815 12.965 22.801 13.0144 22.8101 13.0663C22.8127 13.079 22.8127 13.0921 22.8101 13.1048C22.807 13.1197 22.807 13.135 22.8101 13.1498C22.8099 13.2174 22.7922 13.2838 22.7588 13.3425C22.7247 13.4047 22.6837 13.4628 22.6367 13.5159L21.5705 14.6849L22.8551 16.6761V16.7403C22.9218 16.8323 22.9738 16.9342 23.0093 17.0422V17.0743C23.0167 17.1487 23.006 17.2239 22.978 17.2932C22.95 17.3626 22.9056 17.4241 22.8487 17.4725C22.7415 17.5535 22.6104 17.5965 22.4761 17.5946C22.3869 17.5983 22.2983 17.5783 22.2192 17.5368C22.1337 17.4794 22.0632 17.4023 22.0137 17.312L20.819 15.385L20.2473 15.9824V17.055C20.2512 17.1987 20.2007 17.3386 20.106 17.4468C20.0552 17.4964 19.9949 17.5352 19.9286 17.5606C19.8623 17.586 19.7915 17.5976 19.7206 17.5946C19.6021 17.5971 19.4864 17.5585 19.393 17.4854C19.3023 17.4131 19.2407 17.3105 19.2196 17.1964C19.2133 17.1495 19.2133 17.1019 19.2196 17.055L19.2581 13.2526Z" fill="#1B202C"/>
</svg>
