<svg width="current" height="current" viewBox="0 0 72 72" fill="none" xmlns="http://www.w3.org/2000/svg">
<circle cx="36" cy="36" r="36" fill="#1B202C"/>
<rect x="17.9995" y="16.6924" width="37.125" height="37.125" fill="white"/>
<path d="M13.3575 12.4088C14.1068 12.3637 14.8582 12.3637 15.6075 12.4088H58.0087C58.2261 12.38 58.4471 12.4004 58.6554 12.4686C58.8638 12.5367 59.0542 12.6509 59.2125 12.8025C59.775 13.3763 59.5725 14.2313 59.6062 14.9513C59.6062 29.3813 59.6062 43.8188 59.6062 58.2638C59.6017 58.4619 59.5554 58.6568 59.4703 58.8358C59.3852 59.0148 59.2633 59.1736 59.1124 59.3022C58.9616 59.4307 58.7853 59.526 58.5951 59.5816C58.4049 59.6373 58.2051 59.652 58.0087 59.625H13.7512C13.5699 59.6329 13.3888 59.6032 13.2195 59.5377C13.0502 59.4722 12.8962 59.3723 12.7673 59.2445C12.6384 59.1166 12.5373 58.9635 12.4705 58.7947C12.4036 58.6259 12.3724 58.4453 12.3788 58.2638V13.7813C12.3555 13.4741 12.4407 13.1685 12.6196 12.9178C12.7984 12.667 13.0595 12.4869 13.3575 12.4088ZM23.0437 24.1537C23.0437 32.0287 23.0437 39.9037 23.0437 47.7787H31.9087C31.9087 43.875 31.8525 39.9037 31.9087 36.0562C32.8762 37.4062 33.765 38.8237 34.755 40.1625C36.4087 42.7275 38.2762 45.1462 39.8625 47.7562C42.8325 47.835 45.8025 47.7562 48.7837 47.7562C48.7837 47.385 48.84 47.0137 48.84 46.6312C48.84 39.1162 48.84 31.59 48.84 24.1312C45.8925 24.1312 42.9562 24.1312 40.02 24.1312C40.02 28.0575 40.02 32.0062 40.02 35.9099C37.2862 32.0287 34.71 28.035 31.9087 24.1875C28.9612 24.0638 25.9687 24.1537 23.0437 24.1537Z" fill="#1B202C"/>
<path d="M18.0523 14.625H53.9578C54.8641 14.625 55.7333 14.985 56.3741 15.6259C57.015 16.2667 57.375 17.1359 57.375 18.0422V53.9477C57.375 54.3978 57.2863 54.8434 57.1141 55.2593C56.9419 55.6751 56.6894 56.0529 56.3712 56.3712C56.0529 56.6894 55.6751 56.9418 55.2593 57.1141C54.8434 57.2863 54.3978 57.375 53.9477 57.375H18.0523C17.6022 57.375 17.1565 57.2863 16.7407 57.1141C16.3249 56.9418 15.9471 56.6894 15.6288 56.3712C15.3106 56.0529 15.0581 55.6751 14.8859 55.2593C14.7136 54.8434 14.625 54.3978 14.625 53.9477V18.0422C14.6277 17.1349 14.99 16.2658 15.6324 15.6253C16.2749 14.9847 17.1451 14.625 18.0523 14.625Z" fill="#1B202C"/>
<path d="M36.1035 17.3745C24.9031 17.3745 15.8706 24.6005 15.8706 33.3729C15.8706 39.067 19.6281 44.0529 25.2645 46.9L23.3568 54.0249C23.3208 54.1317 23.3153 54.2463 23.3408 54.3561C23.3663 54.4658 23.4219 54.5663 23.5013 54.6463C23.6171 54.7484 23.766 54.8049 23.9204 54.8052C24.0484 54.795 24.1698 54.7444 24.2673 54.6607L32.476 49.1257C33.6878 49.2929 34.9092 49.3797 36.1324 49.3857C47.3183 49.3857 56.3653 42.1597 56.3653 33.3729C56.3653 24.586 47.2894 17.3745 36.1035 17.3745Z" fill="white"/>
<path d="M22.9518 30.8436H20.7406C20.4666 30.8516 20.1959 30.7814 19.9602 30.6413C19.8556 30.5757 19.7656 30.4892 19.696 30.3872C19.6264 30.2853 19.5785 30.17 19.5556 30.0487C19.5485 29.9718 19.5485 29.8945 19.5556 29.8176C19.5487 29.6737 19.5766 29.5301 19.637 29.3993C19.6974 29.2685 19.7884 29.1542 19.9024 29.066C20.1544 28.8836 20.4585 28.7872 20.7695 28.7914H27.4319C27.7082 28.7816 27.9807 28.8574 28.2123 29.0082C28.3194 29.0708 28.4113 29.1566 28.4813 29.259C28.5513 29.3615 28.5976 29.4782 28.617 29.6008C28.6241 29.6728 28.6241 29.7455 28.617 29.8176C28.6238 29.9636 28.5959 30.1091 28.5357 30.2422C28.4754 30.3754 28.3844 30.4922 28.2702 30.5834C28.0243 30.7657 27.7232 30.8576 27.4175 30.8436H25.2786V38.4454C25.2873 38.6074 25.2622 38.7693 25.205 38.921C25.1478 39.0728 25.0596 39.2111 24.9462 39.327C24.8374 39.4378 24.7066 39.5246 24.5622 39.5819C24.4179 39.6391 24.2631 39.6655 24.108 39.6593C23.8365 39.6671 23.5709 39.5803 23.3564 39.4138C23.1523 39.2511 23.0138 39.02 22.9662 38.7633C22.952 38.6578 22.952 38.5509 22.9662 38.4454L22.9518 30.8436Z" fill="#1B202C"/>
<path d="M29.2546 29.3554C29.3182 29.1176 29.4675 28.9116 29.6737 28.7773C29.8935 28.6527 30.1439 28.5926 30.3963 28.6039H30.9455C31.2133 28.5943 31.4785 28.6593 31.7115 28.7918C31.9583 28.9578 32.1337 29.2105 32.2028 29.4999L35.0932 37.6654C35.1682 37.8784 35.2309 38.0956 35.2811 38.3158C35.2861 38.4073 35.2861 38.4988 35.2811 38.5903C35.286 38.7312 35.2601 38.8714 35.2052 39.0012C35.1503 39.131 35.0677 39.2473 34.9632 39.3418C34.8619 39.4456 34.7404 39.5274 34.6061 39.5821C34.4718 39.6368 34.3277 39.6632 34.1828 39.6597C33.9599 39.6819 33.736 39.6285 33.5472 39.5078C33.3585 39.3872 33.2158 39.2066 33.1422 38.995L32.5352 37.2174H28.7343L28.1274 38.995C28.0556 39.2108 27.9112 39.3949 27.7188 39.5161C27.5264 39.6374 27.298 39.6881 27.0723 39.6597C26.828 39.6662 26.5886 39.5897 26.3931 39.4429C26.2026 39.2915 26.0741 39.0757 26.0318 38.8361C26.0241 38.7543 26.0241 38.672 26.0318 38.5903C26.007 38.4468 26.007 38.3003 26.0318 38.1568C26.0318 37.9979 26.133 37.8243 26.1908 37.6654L29.2546 29.3554ZM30.6998 31.2487L29.3269 35.5843H32.0583L30.6998 31.2487Z" fill="#1B202C"/>
<path d="M35.6126 29.8178C35.5979 29.4935 35.7122 29.1766 35.9305 28.9363C36.0415 28.8243 36.1747 28.7369 36.3216 28.6796C36.4685 28.6223 36.6257 28.5965 36.7832 28.6037C37.0539 28.6006 37.3181 28.687 37.5347 28.8495C37.7354 29.019 37.8688 29.2548 37.9105 29.5142C37.9247 29.6149 37.9247 29.7172 37.9105 29.8178V37.4196H41.8848C42.1603 37.416 42.431 37.4911 42.6652 37.6363C42.7704 37.7012 42.8608 37.7875 42.9305 37.8896C43.0003 37.9917 43.0477 38.1073 43.0699 38.2289C43.0699 38.2289 43.0699 38.3734 43.0699 38.4457C43.0767 38.5896 43.0488 38.733 42.9884 38.8638C42.928 38.9946 42.837 39.1091 42.723 39.1972C42.471 39.3797 42.1669 39.4759 41.8559 39.4717H36.9711C36.66 39.4918 36.3507 39.4108 36.0895 39.2406C35.8558 39.0659 35.7001 38.8064 35.6559 38.518C35.6454 38.3592 35.6454 38.1998 35.6559 38.041L35.6126 29.8178Z" fill="#1B202C"/>
<path d="M43.3308 29.818C43.3222 29.4947 43.4357 29.1799 43.6488 28.9365C43.8654 28.7397 44.1432 28.6234 44.4354 28.6076C44.7277 28.5918 45.0164 28.6774 45.2529 28.8497C45.4581 29.0177 45.5964 29.2534 45.6431 29.5144C45.6503 29.6155 45.6503 29.717 45.6431 29.818V33.3587L49.2995 29.1387C49.4404 28.9947 49.59 28.8597 49.7475 28.7341C49.896 28.6457 50.0662 28.6006 50.2389 28.6039C50.4915 28.6026 50.7385 28.6782 50.9471 28.8208C51.0453 28.8869 51.1292 28.9723 51.1938 29.0716C51.2584 29.1709 51.3022 29.2822 51.3228 29.3989C51.3287 29.4275 51.3287 29.4571 51.3228 29.4857C51.3158 29.519 51.3158 29.5534 51.3228 29.5868C51.3223 29.7388 51.2825 29.8883 51.2072 30.0204C51.1305 30.1603 51.0384 30.291 50.9326 30.4104L48.5336 33.0408L51.424 37.5209V37.6654C51.574 37.8725 51.6911 38.1018 51.7708 38.3448V38.4169C51.7875 38.5844 51.7634 38.7534 51.7005 38.9095C51.6375 39.0656 51.5377 39.204 51.4095 39.313C51.1684 39.4952 50.8735 39.5919 50.5713 39.5877C50.3705 39.5959 50.1711 39.5509 49.9932 39.4575C49.8007 39.3284 49.6421 39.1549 49.5308 38.9517L46.8427 34.616L45.5564 35.9602V38.3736C45.5651 38.6969 45.4516 39.0117 45.2385 39.2551C45.1243 39.3667 44.9884 39.4539 44.8393 39.5111C44.6902 39.5683 44.5309 39.5943 44.3714 39.5877C44.1047 39.5932 43.8443 39.5064 43.6343 39.3419C43.4302 39.1792 43.2916 38.9483 43.2441 38.6916C43.2298 38.5861 43.2298 38.4791 43.2441 38.3736L43.3308 29.818Z" fill="#1B202C"/>
</svg>
