<svg width="current" height="current" viewBox="0 0 57 56" fill="none" xmlns="http://www.w3.org/2000/svg">
<path d="M28.8032 3.60156C14.1314 3.60156 2.29932 13.0671 2.29932 24.5585C2.29932 32.0174 7.22147 38.5487 14.6047 42.2782L12.1058 51.6115C12.0586 51.7514 12.0514 51.9015 12.0848 52.0452C12.1183 52.189 12.1911 52.3206 12.2951 52.4254C12.4467 52.5591 12.6419 52.6331 12.8441 52.6336C13.0117 52.6202 13.1708 52.5539 13.2984 52.4443L24.0515 45.1937C25.6387 45.4128 27.2388 45.5265 28.8411 45.5343C43.494 45.5343 55.345 36.0687 55.345 24.5585C55.345 13.0482 43.4561 3.60156 28.8032 3.60156Z" fill="white"/>
<path d="M11.5754 21.2456H8.6789C8.31989 21.256 7.96533 21.164 7.6566 20.9805C7.51954 20.8946 7.4017 20.7813 7.31048 20.6477C7.21926 20.5142 7.15663 20.3632 7.12653 20.2043C7.11733 20.1035 7.11733 20.0023 7.12653 19.9015C7.11753 19.713 7.15413 19.525 7.23322 19.3536C7.31232 19.1822 7.43157 19.0325 7.58088 18.9171C7.91092 18.678 8.30928 18.5518 8.71676 18.5572H17.4441C17.806 18.5445 18.163 18.6437 18.4664 18.8413C18.6067 18.9233 18.727 19.0356 18.8187 19.1699C18.9104 19.3041 18.9711 19.457 18.9965 19.6175C19.0057 19.7119 19.0057 19.8071 18.9965 19.9015C19.0054 20.0928 18.9689 20.2834 18.8899 20.4578C18.8109 20.6322 18.6918 20.7853 18.5421 20.9047C18.2201 21.1434 17.8256 21.2639 17.4252 21.2456H14.6233V31.2035C14.6347 31.4156 14.6019 31.6277 14.5269 31.8265C14.452 32.0253 14.3365 32.2065 14.1879 32.3583C14.0454 32.5035 13.8741 32.6172 13.685 32.6922C13.4959 32.7672 13.2932 32.8017 13.0899 32.7937C12.7344 32.8038 12.3864 32.6902 12.1055 32.472C11.8381 32.2588 11.6566 31.9562 11.5943 31.6199C11.5756 31.4817 11.5756 31.3417 11.5943 31.2035L11.5754 21.2456Z" fill="#2F343C"/>
<path d="M19.8266 19.2958C19.9099 18.9843 20.1055 18.7145 20.3757 18.5385C20.6636 18.3753 20.9916 18.2966 21.3222 18.3113H22.0416C22.3924 18.2987 22.7398 18.384 23.045 18.5574C23.3684 18.7749 23.5981 19.106 23.6886 19.4851L27.4749 30.1813C27.5731 30.4604 27.6552 30.745 27.721 31.0334C27.7275 31.1532 27.7275 31.2731 27.721 31.393C27.7274 31.5775 27.6935 31.7611 27.6215 31.9312C27.5496 32.1012 27.4414 32.2535 27.3045 32.3774C27.1719 32.5134 27.0127 32.6205 26.8368 32.6922C26.6609 32.7638 26.4721 32.7984 26.2822 32.7939C25.9902 32.8229 25.697 32.7529 25.4497 32.5949C25.2024 32.4369 25.0155 32.2002 24.9192 31.9231L24.1241 29.5946H19.1451L18.35 31.9231C18.256 32.2057 18.0668 32.447 17.8148 32.6058C17.5628 32.7645 17.2635 32.831 16.968 32.7939C16.6479 32.8023 16.3343 32.7021 16.0782 32.5098C15.8287 32.3114 15.6604 32.0288 15.6049 31.7149C15.5949 31.6078 15.5949 31.5 15.6049 31.393C15.5724 31.205 15.5724 31.0131 15.6049 30.8252C15.6049 30.6169 15.7375 30.3896 15.8132 30.1813L19.8266 19.2958ZM21.7198 21.7759L19.9213 27.4553H23.4993L21.7198 21.7759Z" fill="#2F343C"/>
<path d="M28.1603 19.9015C28.1411 19.4767 28.2908 19.0615 28.5768 18.7468C28.7222 18.6001 28.8967 18.4855 29.0891 18.4105C29.2815 18.3355 29.4875 18.3016 29.6938 18.3111C30.0484 18.307 30.3945 18.4202 30.6782 18.6331C30.9411 18.8551 31.1158 19.164 31.1704 19.5038C31.1891 19.6357 31.1891 19.7697 31.1704 19.9015V29.8595H36.3765C36.7374 29.8547 37.0921 29.9531 37.3988 30.1432C37.5367 30.2282 37.6551 30.3414 37.7464 30.4751C37.8377 30.6088 37.8999 30.7602 37.9289 30.9195C37.9289 30.9195 37.9289 31.1089 37.9289 31.2035C37.9379 31.392 37.9013 31.5798 37.8222 31.7512C37.7431 31.9226 37.6239 32.0725 37.4746 32.188C37.1445 32.427 36.7462 32.553 36.3387 32.5476H29.9399C29.5323 32.5738 29.1273 32.4677 28.7851 32.2448C28.479 32.016 28.275 31.676 28.2171 31.2983C28.2033 31.0903 28.2033 30.8814 28.2171 30.6734L28.1603 19.9015Z" fill="#2F343C"/>
<path d="M38.2707 19.9022C38.2593 19.4785 38.4081 19.0662 38.6872 18.7474C38.9709 18.4895 39.3349 18.3373 39.7177 18.3166C40.1005 18.2959 40.4787 18.4079 40.7886 18.6337C41.0572 18.8538 41.2385 19.1625 41.2997 19.5044C41.309 19.6368 41.309 19.7698 41.2997 19.9022V24.5402L46.0893 19.0122C46.2739 18.8236 46.4699 18.6468 46.6762 18.4823C46.8706 18.3665 47.0936 18.3073 47.3199 18.3118C47.6508 18.3099 47.9743 18.409 48.2475 18.5958C48.3762 18.6824 48.4862 18.7943 48.5707 18.9244C48.6553 19.0545 48.7128 19.2003 48.7397 19.3531C48.7474 19.3905 48.7474 19.4293 48.7397 19.4668C48.7305 19.5105 48.7305 19.5555 48.7397 19.5992C48.7391 19.7984 48.6869 19.9941 48.5883 20.1672C48.4878 20.3505 48.3672 20.5217 48.2286 20.6782L45.086 24.1238L48.8722 29.9925V30.1818C49.0688 30.4531 49.2221 30.7534 49.3266 31.0717V31.1662C49.3485 31.3856 49.3169 31.607 49.2344 31.8114C49.152 32.0159 49.0212 32.1972 48.8533 32.34C48.5375 32.5787 48.1511 32.7053 47.7553 32.6998C47.4923 32.7106 47.2311 32.6517 46.998 32.5292C46.7459 32.3601 46.5381 32.1329 46.3922 31.8667L42.871 26.1873L41.1861 27.948V31.1094C41.1974 31.533 41.0487 31.9453 40.7696 32.2642C40.62 32.4104 40.4421 32.5246 40.2467 32.5995C40.0514 32.6744 39.8428 32.7085 39.6337 32.6998C39.2844 32.7071 38.9433 32.5933 38.6682 32.3779C38.4008 32.1647 38.2193 31.8623 38.1571 31.526C38.1384 31.3878 38.1384 31.2476 38.1571 31.1094L38.2707 19.9022Z" fill="#2F343C"/>
</svg>
