<svg width="current" height="current" viewBox="0 0 72 72" fill="none" xmlns="http://www.w3.org/2000/svg">
<circle cx="36" cy="36" r="36" fill="white"/>
<rect x="18" y="16.6923" width="37.125" height="37.125" fill="#13161C"/>
<path d="M13.3575 12.4087C14.1068 12.3636 14.8582 12.3636 15.6075 12.4087H58.0087C58.2261 12.3799 58.4471 12.4003 58.6554 12.4684C58.8638 12.5366 59.0542 12.6508 59.2125 12.8024C59.775 13.3762 59.5725 14.2312 59.6062 14.9512C59.6062 29.3812 59.6062 43.8187 59.6062 58.2637C59.6017 58.4618 59.5554 58.6567 59.4703 58.8357C59.3852 59.0146 59.2633 59.1735 59.1124 59.302C58.9616 59.4306 58.7853 59.5259 58.5951 59.5815C58.4049 59.6371 58.2051 59.6519 58.0087 59.6249H13.7512C13.5699 59.6328 13.3888 59.603 13.2195 59.5376C13.0502 59.4721 12.8962 59.3722 12.7673 59.2444C12.6384 59.1165 12.5373 58.9634 12.4705 58.7946C12.4036 58.6258 12.3724 58.4451 12.3788 58.2637V13.7812C12.3555 13.474 12.4407 13.1684 12.6196 12.9176C12.7984 12.6668 13.0595 12.4868 13.3575 12.4087ZM23.0437 24.1536C23.0437 32.0286 23.0437 39.9036 23.0437 47.7786H31.9087C31.9087 43.8749 31.8525 39.9036 31.9087 36.0561C32.8762 37.4061 33.765 38.8236 34.755 40.1624C36.4087 42.7274 38.2762 45.1461 39.8625 47.7561C42.8325 47.8349 45.8025 47.7561 48.7837 47.7561C48.7837 47.3849 48.84 47.0136 48.84 46.6311C48.84 39.1161 48.84 31.5899 48.84 24.1311C45.8925 24.1311 42.9562 24.1311 40.02 24.1311C40.02 28.0574 40.02 32.0061 40.02 35.9098C37.2862 32.0286 34.71 28.0349 31.9087 24.1874C28.9612 24.0637 25.9687 24.1536 23.0437 24.1536Z" fill="white"/>
<path d="M18.0523 14.625H53.9578C54.8641 14.625 55.7333 14.985 56.3741 15.6259C57.015 16.2667 57.375 17.1359 57.375 18.0422V53.9477C57.375 54.3978 57.2863 54.8434 57.1141 55.2593C56.9419 55.6751 56.6894 56.0529 56.3712 56.3712C56.0529 56.6894 55.6751 56.9418 55.2593 57.1141C54.8434 57.2863 54.3978 57.375 53.9477 57.375H18.0523C17.6022 57.375 17.1565 57.2863 16.7407 57.1141C16.3249 56.9418 15.9471 56.6894 15.6288 56.3712C15.3106 56.0529 15.0581 55.6751 14.8859 55.2593C14.7136 54.8434 14.625 54.3978 14.625 53.9477V18.0422C14.6277 17.1349 14.99 16.2658 15.6324 15.6253C16.2749 14.9847 17.1451 14.625 18.0523 14.625Z" fill="white"/>
<path d="M36.104 17.3745C24.9036 17.3745 15.8711 24.6005 15.8711 33.3729C15.8711 39.067 19.6286 44.0529 25.2649 46.9L23.3573 54.0249C23.3213 54.1317 23.3158 54.2463 23.3413 54.3561C23.3668 54.4658 23.4224 54.5663 23.5018 54.6463C23.6176 54.7484 23.7665 54.8049 23.9209 54.8052C24.0489 54.795 24.1703 54.7444 24.2677 54.6607L32.4765 49.1257C33.6882 49.2929 34.9097 49.3797 36.1329 49.3857C47.3188 49.3857 56.3658 42.1597 56.3658 33.3729C56.3658 24.586 47.2899 17.3745 36.104 17.3745Z" fill="#13161C"/>
<path d="M22.9513 30.8436H20.7401C20.4661 30.8516 20.1954 30.7814 19.9597 30.6413C19.8551 30.5757 19.7651 30.4892 19.6955 30.3872C19.6259 30.2853 19.5781 30.17 19.5551 30.0487C19.548 29.9718 19.548 29.8945 19.5551 29.8176C19.5482 29.6737 19.5761 29.5301 19.6365 29.3993C19.6969 29.2685 19.7879 29.1542 19.9019 29.066C20.1539 28.8836 20.458 28.7872 20.769 28.7914H27.4314C27.7077 28.7816 27.9802 28.8574 28.2119 29.0082C28.319 29.0708 28.4108 29.1566 28.4808 29.259C28.5508 29.3615 28.5971 29.4782 28.6165 29.6008C28.6236 29.6728 28.6236 29.7455 28.6165 29.8176C28.6233 29.9636 28.5955 30.1091 28.5352 30.2422C28.4749 30.3754 28.3839 30.4922 28.2697 30.5834C28.0238 30.7657 27.7227 30.8576 27.417 30.8436H25.2781V38.4454C25.2868 38.6074 25.2617 38.7693 25.2045 38.921C25.1473 39.0728 25.0591 39.2111 24.9457 39.327C24.8369 39.4378 24.7061 39.5246 24.5618 39.5819C24.4174 39.6391 24.2626 39.6655 24.1075 39.6593C23.836 39.6671 23.5704 39.5803 23.356 39.4138C23.1518 39.2511 23.0133 39.02 22.9658 38.7633C22.9515 38.6578 22.9515 38.5509 22.9658 38.4454L22.9513 30.8436Z" fill="white"/>
<path d="M29.2551 29.3554C29.3187 29.1176 29.4679 28.9116 29.6742 28.7773C29.894 28.6527 30.1444 28.5926 30.3968 28.6039H30.946C31.2138 28.5943 31.479 28.6593 31.7119 28.7918C31.9588 28.9578 32.1342 29.2105 32.2033 29.4999L35.0937 37.6654C35.1687 37.8784 35.2314 38.0956 35.2816 38.3158C35.2866 38.4073 35.2866 38.4988 35.2816 38.5903C35.2865 38.7312 35.2606 38.8714 35.2057 39.0012C35.1507 39.131 35.0682 39.2473 34.9637 39.3418C34.8624 39.4456 34.7409 39.5274 34.6066 39.5821C34.4723 39.6368 34.3282 39.6632 34.1832 39.6597C33.9603 39.6819 33.7365 39.6285 33.5477 39.5078C33.3589 39.3872 33.2163 39.2066 33.1427 38.995L32.5357 37.2174H28.7348L28.1278 38.995C28.056 39.2108 27.9117 39.3949 27.7193 39.5161C27.5269 39.6374 27.2984 39.6881 27.0728 39.6597C26.8285 39.6662 26.5891 39.5897 26.3936 39.4429C26.2031 39.2915 26.0746 39.0757 26.0323 38.8361C26.0246 38.7543 26.0246 38.672 26.0323 38.5903C26.0075 38.4468 26.0075 38.3003 26.0323 38.1568C26.0323 37.9979 26.1334 37.8243 26.1913 37.6654L29.2551 29.3554ZM30.7003 31.2487L29.3274 35.5843H32.0588L30.7003 31.2487Z" fill="white"/>
<path d="M35.6126 29.8178C35.5979 29.4935 35.7122 29.1766 35.9305 28.9363C36.0415 28.8243 36.1747 28.7369 36.3216 28.6796C36.4685 28.6223 36.6257 28.5965 36.7832 28.6037C37.0539 28.6006 37.3181 28.687 37.5347 28.8495C37.7354 29.019 37.8688 29.2548 37.9105 29.5142C37.9247 29.6149 37.9247 29.7172 37.9105 29.8178V37.4196H41.8848C42.1603 37.416 42.431 37.4911 42.6652 37.6363C42.7704 37.7012 42.8608 37.7875 42.9305 37.8896C43.0003 37.9917 43.0477 38.1073 43.0699 38.2289C43.0699 38.2289 43.0699 38.3734 43.0699 38.4457C43.0767 38.5896 43.0488 38.733 42.9884 38.8638C42.928 38.9946 42.837 39.1091 42.723 39.1972C42.471 39.3797 42.1669 39.4759 41.8559 39.4717H36.9711C36.66 39.4918 36.3507 39.4108 36.0895 39.2406C35.8558 39.0659 35.7001 38.8064 35.6559 38.518C35.6454 38.3592 35.6454 38.1998 35.6559 38.041L35.6126 29.8178Z" fill="white"/>
<path d="M43.3308 29.8182C43.3222 29.4948 43.4357 29.18 43.6488 28.9366C43.8654 28.7398 44.1432 28.6236 44.4354 28.6078C44.7277 28.592 45.0164 28.6775 45.2529 28.8498C45.4581 29.0178 45.5964 29.2535 45.6431 29.5145C45.6503 29.6156 45.6503 29.7171 45.6431 29.8182V33.3588L49.2995 29.1388C49.4404 28.9948 49.59 28.8598 49.7475 28.7343C49.896 28.6459 50.0662 28.6007 50.2389 28.6041C50.4915 28.6027 50.7385 28.6783 50.9471 28.8209C51.0453 28.887 51.1292 28.9724 51.1938 29.0717C51.2584 29.1711 51.3022 29.2823 51.3228 29.399C51.3287 29.4276 51.3287 29.4572 51.3228 29.4858C51.3158 29.5191 51.3158 29.5535 51.3228 29.5869C51.3223 29.739 51.2825 29.8884 51.2072 30.0205C51.1305 30.1604 51.0384 30.2911 50.9326 30.4106L48.5336 33.0409L51.424 37.521V37.6655C51.574 37.8726 51.6911 38.1019 51.7708 38.3449V38.4171C51.7875 38.5845 51.7634 38.7536 51.7005 38.9096C51.6375 39.0657 51.5377 39.2041 51.4095 39.3131C51.1684 39.4953 50.8735 39.592 50.5713 39.5878C50.3705 39.596 50.1711 39.5511 49.9932 39.4576C49.8007 39.3285 49.6421 39.155 49.5308 38.9518L46.8427 34.6162L45.5564 35.9603V38.3737C45.5651 38.6971 45.4516 39.0118 45.2385 39.2552C45.1243 39.3669 44.9884 39.454 44.8393 39.5112C44.6902 39.5684 44.5309 39.5944 44.3714 39.5878C44.1047 39.5933 43.8443 39.5065 43.6343 39.342C43.4302 39.1793 43.2916 38.9485 43.2441 38.6918C43.2298 38.5863 43.2298 38.4792 43.2441 38.3737L43.3308 29.8182Z" fill="white"/>
</svg>
