<svg width="16" height="16" viewBox="0 0 16 16" fill="none" xmlns="http://www.w3.org/2000/svg">
<path d="M7.98651 2C4.39576 2 1.5 4.31659 1.5 7.12895C1.5 8.95444 2.70464 10.5529 4.51159 11.4656L3.90001 13.7498C3.88848 13.7841 3.8867 13.8208 3.89489 13.856C3.90307 13.8912 3.92089 13.9234 3.94634 13.949C3.98346 13.9818 4.03122 13.9999 4.0807 14C4.12174 13.9967 4.16067 13.9805 4.1919 13.9537L6.82357 12.1792C7.21204 12.2328 7.60363 12.2606 7.99578 12.2625C11.5819 12.2625 14.4823 9.94595 14.4823 7.12895C14.4823 4.31195 11.5726 2 7.98651 2Z" fill="white"/>
<path d="M3.77116 6.31809H3.06228C2.97441 6.32063 2.88764 6.29813 2.81208 6.25321C2.77854 6.2322 2.7497 6.20446 2.72737 6.17177C2.70505 6.13908 2.68972 6.10213 2.68235 6.06324C2.6801 6.03858 2.6801 6.0138 2.68235 5.98914C2.68015 5.943 2.68911 5.89699 2.70846 5.85505C2.72782 5.8131 2.75701 5.77647 2.79355 5.74821C2.87432 5.68971 2.97182 5.65881 3.07154 5.66015H5.20746C5.29602 5.65704 5.38338 5.68132 5.45765 5.72966C5.49199 5.74974 5.52144 5.77723 5.54387 5.81008C5.56631 5.84293 5.58117 5.88034 5.58738 5.91963C5.58964 5.94275 5.58964 5.96603 5.58738 5.98914C5.58957 6.03595 5.58063 6.0826 5.5613 6.12528C5.54197 6.16796 5.5128 6.20543 5.47618 6.23466C5.39738 6.29309 5.30083 6.32257 5.20282 6.31809H4.51711V8.75517C4.51989 8.80709 4.51186 8.85899 4.49351 8.90765C4.47517 8.9563 4.44691 9.00063 4.41054 9.03779C4.37567 9.07332 4.33374 9.10116 4.28746 9.11951C4.24118 9.13786 4.19156 9.14631 4.14181 9.14434C4.0548 9.14682 3.96963 9.11901 3.90089 9.06561C3.83544 9.01345 3.79102 8.93938 3.77579 8.85708C3.77121 8.82326 3.77121 8.78899 3.77579 8.75517L3.77116 6.31809Z" fill="#1B202C"/>
<path d="M5.79015 5.84097C5.81053 5.76473 5.85839 5.69871 5.92452 5.65563C5.99498 5.6157 6.07527 5.59643 6.15618 5.60004H6.33224C6.41809 5.59696 6.50311 5.61782 6.5778 5.66027C6.65694 5.71349 6.71318 5.79453 6.73533 5.88729L7.66198 8.50508C7.686 8.57337 7.70611 8.64302 7.72221 8.71361C7.72379 8.74293 7.72379 8.77229 7.72221 8.80161C7.72377 8.84677 7.71546 8.89172 7.69786 8.93333C7.68025 8.97495 7.65378 9.01223 7.62027 9.04255C7.58781 9.07582 7.54885 9.10204 7.5058 9.11958C7.46275 9.13712 7.41655 9.14558 7.37008 9.14446C7.29862 9.15157 7.22685 9.13443 7.16633 9.09577C7.10581 9.0571 7.06007 8.99918 7.03649 8.93135L6.84189 8.36148H5.62336L5.42876 8.93135C5.40575 9.00052 5.35946 9.05956 5.29778 9.09843C5.23611 9.13729 5.16286 9.15355 5.09054 9.14446C5.01219 9.14652 4.93545 9.12201 4.87277 9.07495C4.81171 9.0264 4.77052 8.95722 4.75694 8.88039C4.75449 8.8542 4.75449 8.82781 4.75694 8.80161C4.74899 8.75562 4.74899 8.70864 4.75694 8.66265C4.75694 8.61168 4.78938 8.55604 4.80791 8.50508L5.79015 5.84097ZM6.25348 6.44795L5.81332 7.83792H6.689L6.25348 6.44795Z" fill="#1B202C"/>
<path d="M7.82853 5.98923C7.82382 5.88525 7.86047 5.78364 7.93046 5.70661C7.96604 5.67072 8.00875 5.64267 8.05584 5.62432C8.10292 5.60596 8.15334 5.59766 8.20382 5.6C8.29061 5.59898 8.37531 5.62669 8.44474 5.67878C8.5091 5.73313 8.55184 5.80873 8.56521 5.89189C8.56977 5.92416 8.56977 5.95695 8.56521 5.98923V8.42631H9.83935C9.92766 8.42515 10.0145 8.44922 10.0895 8.49576C10.1233 8.51656 10.1523 8.54425 10.1746 8.57698C10.197 8.6097 10.2122 8.64675 10.2193 8.68574C10.2193 8.68574 10.2193 8.73208 10.2193 8.75525C10.2215 8.80139 10.2125 8.84735 10.1932 8.88929C10.1738 8.93123 10.1446 8.96792 10.1081 8.99618C10.0273 9.05468 9.9298 9.08553 9.83008 9.08419H8.26405C8.16431 9.09061 8.06517 9.06464 7.98142 9.0101C7.90651 8.95408 7.8566 8.87089 7.84243 8.77844C7.83903 8.72753 7.83903 8.67641 7.84243 8.6255L7.82853 5.98923Z" fill="#1B202C"/>
<path d="M10.3047 5.98929C10.3019 5.88562 10.3383 5.78471 10.4066 5.70667C10.476 5.64357 10.5651 5.60631 10.6588 5.60125C10.7525 5.59619 10.8451 5.6236 10.9209 5.67885C10.9866 5.73272 11.031 5.80828 11.046 5.89196C11.0483 5.92435 11.0483 5.9569 11.046 5.98929V7.12441L12.2182 5.77149C12.2634 5.72533 12.3113 5.68205 12.3618 5.6418C12.4094 5.61346 12.464 5.59898 12.5193 5.60006C12.6003 5.59962 12.6795 5.62387 12.7464 5.66957C12.7779 5.69079 12.8048 5.71816 12.8255 5.75C12.8462 5.78184 12.8602 5.81751 12.8668 5.85491C12.8687 5.86408 12.8687 5.87357 12.8668 5.88274C12.8646 5.89343 12.8646 5.90445 12.8668 5.91515C12.8667 5.9639 12.8539 6.01181 12.8298 6.05417C12.8052 6.09902 12.7757 6.14093 12.7417 6.17922L11.9726 7.02249L12.8993 8.45878V8.5051C12.9474 8.5715 12.9849 8.645 13.0105 8.72291V8.74604C13.0158 8.79972 13.0081 8.85392 12.9879 8.90395C12.9677 8.95398 12.9357 8.99835 12.8946 9.0333C12.8173 9.09171 12.7228 9.12272 12.6259 9.12136C12.5615 9.12401 12.4976 9.10959 12.4406 9.07962C12.3789 9.03823 12.328 8.98263 12.2923 8.91747L11.4305 7.5275L11.0182 7.95841V8.73213C11.021 8.8358 10.9846 8.93671 10.9163 9.01475C10.8796 9.05053 10.8361 9.07849 10.7883 9.09681C10.7405 9.11514 10.6894 9.1235 10.6383 9.12136C10.5528 9.12315 10.4693 9.0953 10.402 9.04257C10.3365 8.99041 10.2921 8.9164 10.2769 8.8341C10.2723 8.80028 10.2723 8.76595 10.2769 8.73213L10.3047 5.98929Z" fill="#1B202C"/>
</svg>
