<svg width="20" height="20" viewBox="0 0 20 20" fill="none" xmlns="http://www.w3.org/2000/svg">
<path d="M17.3026 1.42847H2.69434C1.99456 1.42847 1.42871 1.98092 1.42871 2.66396V17.3325C1.42871 18.0155 1.99456 18.5713 2.69434 18.5713H17.3026C18.0024 18.5713 18.5716 18.0155 18.5716 17.3358V2.66396C18.5716 1.98092 18.0024 1.42847 17.3026 1.42847ZM6.51465 16.0367H3.97001V7.85369H6.51465V16.0367ZM5.24233 6.73873C4.42536 6.73873 3.76576 6.07914 3.76576 5.26552C3.76576 4.4519 4.42536 3.79231 5.24233 3.79231C6.05594 3.79231 6.71554 4.4519 6.71554 5.26552C6.71554 6.07579 6.05594 6.73873 5.24233 6.73873ZM16.037 16.0367H13.4957V12.059C13.4957 11.1115 13.4789 9.8894 12.1731 9.8894C10.8506 9.8894 10.6497 10.924 10.6497 11.9921V16.0367H8.11175V7.85369H10.5492V8.97199H10.5827C10.9209 8.32914 11.7513 7.64945 12.9867 7.64945C15.5615 7.64945 16.037 9.34365 16.037 11.5468V16.0367Z" fill="white"/>
</svg>
