<svg width="56" height="56" viewBox="0 0 56 56" fill="none" xmlns="http://www.w3.org/2000/svg">
<path d="M48.4469 4H7.54375C5.58437 4 4 5.54688 4 7.45938V48.5312C4 50.4437 5.58437 52 7.54375 52H48.4469C50.4062 52 52 50.4438 52 48.5406V7.45938C52 5.54688 50.4062 4 48.4469 4ZM18.2406 44.9031H11.1156V21.9906H18.2406V44.9031ZM14.6781 18.8688C12.3906 18.8688 10.5438 17.0219 10.5438 14.7437C10.5438 12.4656 12.3906 10.6187 14.6781 10.6187C16.9563 10.6187 18.8031 12.4656 18.8031 14.7437C18.8031 17.0125 16.9563 18.8688 14.6781 18.8688ZM44.9031 44.9031H37.7875V33.7656C37.7875 31.1125 37.7406 27.6906 34.0844 27.6906C30.3812 27.6906 29.8187 30.5875 29.8187 33.5781V44.9031H22.7125V21.9906H29.5375V25.1219H29.6312C30.5781 23.3219 32.9031 21.4188 36.3625 21.4188C43.5719 21.4188 44.9031 26.1625 44.9031 32.3313V44.9031Z" fill="white"/>
</svg>
