<svg width="20" height="20" viewBox="0 0 20 20" fill="none" xmlns="http://www.w3.org/2000/svg">
<g clip-path="url(#clip0_113_4047)">
<circle cx="10" cy="10" r="10" fill="#1B202C"/>
<path fill-rule="evenodd" clip-rule="evenodd" d="M14.504 5.49642C13.3662 4.35862 11.5215 4.35862 10.3837 5.49642L8.98731 6.89277C8.81349 7.06659 8.81349 7.3484 8.98731 7.52222C9.16112 7.69604 9.44294 7.69604 9.61676 7.52222L11.0131 6.12587C11.8033 5.3357 13.0844 5.3357 13.8746 6.12587C14.6647 6.91603 14.6647 8.19714 13.8746 8.98731L12.4782 10.3837C12.3044 10.5575 12.3044 10.8393 12.4782 11.0131C12.652 11.1869 12.9338 11.1869 13.1076 11.0131L14.504 9.61676C15.6418 8.47896 15.6418 6.63422 14.504 5.49642ZM7.52222 9.61676C7.69604 9.44294 7.69604 9.16112 7.52222 8.98731C7.3484 8.81349 7.06659 8.81349 6.89277 8.98731L5.49642 10.3837C4.35862 11.5215 4.35862 13.3662 5.49642 14.504C6.63422 15.6418 8.47896 15.6418 9.61676 14.504L11.0131 13.1076C11.1869 12.9338 11.1869 12.652 11.0131 12.4782C10.8393 12.3044 10.5575 12.3044 10.3837 12.4782L8.98731 13.8746C8.19714 14.6647 6.91603 14.6647 6.12587 13.8746C5.3357 13.0844 5.3357 11.8033 6.12587 11.0131L7.52222 9.61676ZM8.28906 11.082C8.11524 11.2558 8.11524 11.5376 8.28906 11.7115C8.46287 11.8853 8.74469 11.8853 8.91851 11.7115L11.7112 8.91874C11.885 8.74492 11.885 8.46311 11.7112 8.28929C11.5374 8.11547 11.2556 8.11547 11.0818 8.28929L8.28906 11.082Z" fill="white"/>
</g>
<defs>
<clipPath id="clip0_113_4047">
<rect width="20" height="20" fill="white"/>
</clipPath>
</defs>
</svg>
