<svg width="current" height="current" viewBox="0 0 56 56" fill="none" xmlns="http://www.w3.org/2000/svg">
<path d="M48.4469 3.99992H7.54375C5.58437 3.99992 4 5.5468 4 7.4593V48.5312C4 50.4437 5.58437 51.9999 7.54375 51.9999H48.4469C50.4062 51.9999 52 50.4437 52 48.5406V7.4593C52 5.5468 50.4062 3.99992 48.4469 3.99992ZM18.2406 44.903H11.1156V21.9905H18.2406V44.903ZM14.6781 18.8687C12.3906 18.8687 10.5438 17.0218 10.5438 14.7437C10.5438 12.4655 12.3906 10.6187 14.6781 10.6187C16.9563 10.6187 18.8031 12.4655 18.8031 14.7437C18.8031 17.0124 16.9563 18.8687 14.6781 18.8687ZM44.9031 44.903H37.7875V33.7655C37.7875 31.1124 37.7406 27.6905 34.0844 27.6905C30.3812 27.6905 29.8187 30.5874 29.8187 33.578V44.903H22.7125V21.9905H29.5375V25.1218H29.6312C30.5781 23.3218 32.9031 21.4187 36.3625 21.4187C43.5719 21.4187 44.9031 26.1624 44.9031 32.3312V44.903Z" fill="white"/>
</svg>
