<svg width="current" height="current" viewBox="0 0 28 28" fill="none" xmlns="http://www.w3.org/2000/svg">
<g clip-path="url(#clip0_97_2229)">
<circle cx="14" cy="14" r="14" fill="#1B202C"/>
<path fill-rule="evenodd" clip-rule="evenodd" d="M20.3053 7.69469C18.7124 6.10177 16.1298 6.10177 14.5368 7.69469L12.5819 9.64959C12.3386 9.89293 12.3386 10.2875 12.5819 10.5308C12.8253 10.7742 13.2198 10.7742 13.4632 10.5308L15.4181 8.57592C16.5243 7.46969 18.3178 7.46969 19.4241 8.57592C20.5303 9.68215 20.5303 11.4757 19.4241 12.5819L17.4692 14.5368C17.2258 14.7802 17.2258 15.1747 17.4692 15.4181C17.7125 15.6614 18.1071 15.6614 18.3504 15.4181L20.3053 13.4632C21.8982 11.8702 21.8982 9.28761 20.3053 7.69469ZM10.5308 13.4632C10.7742 13.2198 10.7742 12.8253 10.5308 12.5819C10.2875 12.3386 9.89293 12.3386 9.64959 12.5819L7.69469 14.5368C6.10177 16.1298 6.10177 18.7124 7.69469 20.3053C9.28761 21.8982 11.8702 21.8982 13.4632 20.3053L15.4181 18.3504C15.6614 18.1071 15.6614 17.7125 15.4181 17.4692C15.1747 17.2258 14.7802 17.2258 14.5368 17.4692L12.5819 19.4241C11.4757 20.5303 9.68215 20.5303 8.57592 19.4241C7.46969 18.3178 7.46969 16.5243 8.57592 15.4181L10.5308 13.4632ZM11.6045 15.5144C11.3611 15.7577 11.3611 16.1523 11.6045 16.3956C11.8478 16.639 12.2424 16.639 12.4857 16.3956L16.3955 12.4858C16.6389 12.2425 16.6389 11.848 16.3955 11.6046C16.1522 11.3613 15.7576 11.3613 15.5143 11.6046L11.6045 15.5144Z" fill="white"/>
</g>
<defs>
<clipPath id="clip0_97_2229">
<rect width="28" height="28" fill="white"/>
</clipPath>
</defs>
</svg>
