<svg width="32" height="32" viewBox="0 0 32 32" fill="none" xmlns="http://www.w3.org/2000/svg">
<g clip-path="url(#clip0_113_4851)">
<circle cx="16" cy="16" r="16" fill="#1B202C"/>
<path fill-rule="evenodd" clip-rule="evenodd" d="M9.50809 10.3261C9.00089 10.3261 8.58972 10.7447 8.58972 11.2612V20.6118C8.58972 21.1282 9.00089 21.5469 9.50809 21.5469H22.3652C22.8724 21.5469 23.2836 21.1282 23.2836 20.6118V11.2612C23.2836 10.7447 22.8724 10.3261 22.3652 10.3261H9.50809ZM7.36523 11.2612C7.36523 10.0562 8.32462 9.07935 9.50809 9.07935H22.3652C23.5487 9.07935 24.5081 10.0562 24.5081 11.2612V20.6118C24.5081 21.8168 23.5487 22.7936 22.3652 22.7936H9.50809C8.32462 22.7936 7.36523 21.8168 7.36523 20.6118V11.2612Z" fill="white"/>
<path fill-rule="evenodd" clip-rule="evenodd" d="M9.94321 11.8135C10.1508 11.5418 10.5355 11.4928 10.8024 11.7042L15.9367 15.7702L21.071 11.7042C21.3379 11.4928 21.7226 11.5418 21.9302 11.8135C22.1378 12.0853 22.0897 12.477 21.8228 12.6883L16.3126 17.052C16.0915 17.227 15.7819 17.227 15.5608 17.052L10.0506 12.6883C9.7837 12.477 9.73562 12.0853 9.94321 11.8135Z" fill="white"/>
</g>
<defs>
<clipPath id="clip0_113_4851">
<rect width="32" height="32" fill="white"/>
</clipPath>
</defs>
</svg>
