<svg width="current" height="current" viewBox="0 0 72 72" fill="none" xmlns="http://www.w3.org/2000/svg">
<g clip-path="url(#clip0_108_3418)">
<circle cx="36" cy="36" r="36" fill="#1B202C"/>
<path fill-rule="evenodd" clip-rule="evenodd" d="M21.3927 23.2339C20.2515 23.2339 19.3264 24.1759 19.3264 25.3378V46.3768C19.3264 47.5387 20.2515 48.4807 21.3927 48.4807H50.3213C51.4625 48.4807 52.3876 47.5387 52.3876 46.3768V25.3378C52.3876 24.1759 51.4625 23.2339 50.3213 23.2339H21.3927ZM16.5713 25.3378C16.5713 22.6266 18.7299 20.4287 21.3927 20.4287H50.3213C52.9841 20.4287 55.1427 22.6266 55.1427 25.3378V46.3768C55.1427 49.088 52.9841 51.2859 50.3213 51.2859H21.3927C18.7299 51.2859 16.5713 49.088 16.5713 46.3768V25.3378Z" fill="white"/>
<path fill-rule="evenodd" clip-rule="evenodd" d="M22.3717 26.5807C22.8388 25.9692 23.7043 25.859 24.3048 26.3346L35.8571 35.483L47.4093 26.3346C48.0098 25.859 48.8753 25.9692 49.3424 26.5807C49.8095 27.1921 49.7013 28.0733 49.1008 28.5489L36.7028 38.3671C36.2054 38.761 35.5088 38.761 35.0113 38.3671L22.6134 28.5489C22.0128 28.0733 21.9046 27.1921 22.3717 26.5807Z" fill="white"/>
</g>
<defs>
<clipPath id="clip0_108_3418">
<rect width="72" height="72" fill="white"/>
</clipPath>
</defs>
</svg>
