<svg width="20" height="20" viewBox="0 0 20 20" fill="none" xmlns="http://www.w3.org/2000/svg">
<path fill-rule="evenodd" clip-rule="evenodd" d="M3.57157 4.44812C3.06437 4.44812 2.6532 4.8624 2.6532 5.37345V14.6267C2.6532 15.1377 3.06437 15.552 3.57157 15.552H16.4287C16.9359 15.552 17.3471 15.1377 17.3471 14.6267V5.37345C17.3471 4.8624 16.9359 4.44812 16.4287 4.44812H3.57157ZM1.42871 5.37345C1.42871 4.18101 2.3881 3.21436 3.57157 3.21436H16.4287C17.6122 3.21436 18.5716 4.18101 18.5716 5.37345V14.6267C18.5716 15.8191 17.6122 16.7858 16.4287 16.7858H3.57157C2.3881 16.7858 1.42871 15.8191 1.42871 14.6267V5.37345Z" fill="white"/>
<path fill-rule="evenodd" clip-rule="evenodd" d="M4.00669 5.92007C4.21428 5.65114 4.59894 5.60269 4.86585 5.81186L10.0002 9.83548L15.1345 5.81186C15.4014 5.60269 15.7861 5.65114 15.9936 5.92007C16.2012 6.189 16.1532 6.57657 15.8863 6.78574L10.376 11.1039C10.155 11.2772 9.84537 11.2772 9.62429 11.1039L4.11408 6.78574C3.84717 6.57657 3.79909 6.189 4.00669 5.92007Z" fill="white"/>
</svg>
